# xmcd CD database file
#
# Track frame offsets:
#	150
#	13865
#	29253
#	41100
#	60420
#	89490
#	109593
#	122098
#	145158
#
# Disc length: 2390 seconds
#
# Revision: 3
# Processed by: cddbd v1.5.2PL0 Copyright (c) Steve Scherf et al.
# Submitted via: CDex 1.70beta2
#
DISCID=75095409
DTITLE=Uriah Heep - Demons And Wizards
DYEAR=1972
DGENRE=Hard Rock
TTITLE0=The Wizard
TTITLE1=Traveller In Time
TTITLE2=Easy Livin'
TTITLE3=Poet's Justice
TTITLE4=Circle Of Hands
TTITLE5=Rainbow Demon
TTITLE6=All My Life
TTITLE7=Paradise
TTITLE8=The Spell
EXTD=YEAR: 1972
EXTT0=
EXTT1=
EXTT2=
EXTT3=
EXTT4=
EXTT5=
EXTT6=
EXTT7=
EXTT8=
PLAYORDER=
